<svg data-name="圖層 1" xmlns="http://www.w3.org/2000/svg" width="138.39" height="32"><path d="M31.69 6c-5.59 0-8.93 4.44-8.93 9.92v7.81a2.12 2.12 0 1 0 4.23 0V16c0-3.93 2.11-5.69 4.71-5.69s4.71 2 4.71 5.69v7.75a2.12 2.12 0 1 0 4.23 0v-7.81C40.63 10.46 37.51 6 31.69 6zm16.47 2.11a2.11 2.11 0 0 0-4.21 0v15.62a2.11 2.11 0 0 0 4.21 0zm45.49 7.77a9.48 9.48 0 0 0-2.92-7 9.89 9.89 0 0 0-14 0 9.55 9.55 0 0 0-2.9 7 9.53 9.53 0 0 0 2.9 7 9.54 9.54 0 0 0 7 2.91A9.7 9.7 0 0 0 89.44 24a2.14 2.14 0 0 0 2.11 1.8 2.11 2.11 0 0 0 2.1-2zm-9.89 5.68a5.68 5.68 0 0 1-5.69-5.68 5.69 5.69 0 1 1 11.37 0 5.65 5.65 0 0 1-5.68 5.68zm54.63-5.68a9.52 9.52 0 0 0-2.92-7 9.89 9.89 0 0 0-14 0 9.55 9.55 0 0 0-2.9 7 9.53 9.53 0 0 0 2.9 7 9.53 9.53 0 0 0 7 2.91 9.71 9.71 0 0 0 5.71-1.79 2.12 2.12 0 0 0 4.21-.24zm-9.9 5.68a5.67 5.67 0 0 1-5.68-5.68 5.69 5.69 0 1 1 11.37 0 5.65 5.65 0 0 1-5.69 5.68zM68.36 8.92a9.87 9.87 0 0 0-14 0 9.48 9.48 0 0 0-2.92 7v14.01a2.11 2.11 0 0 0 4.21 0V24a9.73 9.73 0 0 0 5.69 1.79 9.5 9.5 0 0 0 7-2.91 9.5 9.5 0 0 0 2.91-7 9.52 9.52 0 0 0-2.89-6.96zm-3 11a5.68 5.68 0 0 1-9.71-4 5.63 5.63 0 0 1 5.69-5.69 5.67 5.67 0 0 1 5.69 5.69 5.48 5.48 0 0 1-1.64 3.98zm47.97-11.01a9.85 9.85 0 0 0-14 0 9.48 9.48 0 0 0-2.92 7v14.01a2.11 2.11 0 0 0 4.21 0V24a9.63 9.63 0 0 0 5.68 1.8 9.5 9.5 0 0 0 7-2.91 9.5 9.5 0 0 0 2.91-7 9.5 9.5 0 0 0-2.88-6.98zm-3 11a5.68 5.68 0 0 1-9.7-4 5.63 5.63 0 0 1 5.68-5.69 5.67 5.67 0 0 1 5.69 5.65 5.48 5.48 0 0 1-1.64 4.02zM17.74 4.79a2.1 2.1 0 0 0-2.1 2.11v9.18a5.49 5.49 0 0 1-1.67 4 5.78 5.78 0 0 1-8.09 0 5.47 5.47 0 0 1-1.65-4V6.9A2.12 2.12 0 0 0 0 6.9V16a9.5 9.5 0 0 0 2.93 7 9.52 9.52 0 0 0 7 2.89 9.54 9.54 0 0 0 7-2.89 9.58 9.58 0 0 0 2.93-7V6.9a2.09 2.09 0 0 0-2.12-2.11z"/><circle cx="46.05" cy="2.34" r="2.34"/></svg>